# xmcd
#
# Track frame offsets: 
#        150
#        11471
#        22910
#        35667
#        47306
#        57262
#        67449
#        79200
#        92992
#        103623
#        114997
#        127624
#        139603
#        151074
#        164123
#        175735
#        188829
#        199970
#        210807
#        221128
#        230627
#        243206
#        253755
#        265182
#        276876
#
# Disc length: 3826 seconds
#
# Revision: 0
# Processed by: cddbd v1.5.1PL0 Copyright (c) Steve Scherf et al.
# Submitted via: ExactAudioCopy v0.95a4
#
DISCID=5c0ef019
DTITLE=George Morgan - Candy Kisses - Disc 4
DYEAR=1900
DGENRE=Country
TTITLE0=Lonesome Record
TTITLE1=Ever So Often
TTITLE2=Little Pioneer
TTITLE3=She's Back In Town
TTITLE4=Jesus Saviour Pilot Me
TTITLE5=Stay Away From Me Baby
TTITLE6=Take A Look At Yourself
TTITLE7=Send For My Baby
TTITLE8=Now You Know
TTITLE9=There Goes My Love
TTITLE10=The Way Of A Hopeless Love
TTITLE11=Perfect Romance
TTITLE12=Can I Be Dreaming
TTITLE13=Don't Cry, For You I Love
TTITLE14=Sweet, Sweet Lips
TTITLE15=The Tears Behind The Smile
TTITLE16=Don't Knock It
TTITLE17=Our Summer Vacation
TTITLE18=It Always Ends Too Soon
TTITLE19=Late Date
TTITLE20=My House Is Divided
TTITLE21=It's A Sin
TTITLE22=The One Rose (That's Left In My Heart)
TTITLE23=White Azaleas
TTITLE24=You're The Only Star In My Blue Heaven
EXTD=
EXTT0=
EXTT1=
EXTT2=
EXTT3=
EXTT4=
EXTT5=
EXTT6=
EXTT7=
EXTT8=
EXTT9=
EXTT10=
EXTT11=
EXTT12=
EXTT13=
EXTT14=
EXTT15=
EXTT16=
EXTT17=
EXTT18=
EXTT19=
EXTT20=
EXTT21=
EXTT22=
EXTT23=
EXTT24=
PLAYORDER=
